<svg xmlns="http://www.w3.org/2000/svg" width="20.617" height="14.967" viewBox="0 0 20.617 14.967" fill="none">
  <path d="M 7.051 11.7 L 18.351 0.4 C 18.617 0.133 18.928 0 19.284 0 C 19.64 0 19.951 0.133 20.217 0.4 C 20.484 0.667 20.617 0.983 20.617 1.35 C 20.617 1.717 20.484 2.033 20.217 2.3 L 7.984 14.567 C 7.717 14.833 7.406 14.967 7.051 14.967 C 6.695 14.967 6.384 14.833 6.117 14.567 L 0.384 8.833 C 0.117 8.567 -0.01 8.25 0.001 7.883 C 0.012 7.517 0.151 7.2 0.417 6.933 C 0.684 6.667 1.001 6.533 1.367 6.533 C 1.734 6.533 2.051 6.667 2.317 6.933 L 7.051 11.7 Z" fill="currentColor" fill-rule="nonzero"></path>
</svg>