<svg xmlns="http://www.w3.org/2000/svg" width="42.667" height="52.667" viewBox="0 0 42.667 52.667" fill="none">
  <path d="M 18.533 28.133 L 14.8 24.4 C 14.267 23.867 13.644 23.6 12.933 23.6 C 12.222 23.6 11.6 23.867 11.067 24.4 C 10.533 24.933 10.267 25.567 10.267 26.3 C 10.267 27.033 10.533 27.667 11.067 28.2 L 16.667 33.867 C 17.2 34.4 17.822 34.667 18.533 34.667 C 19.244 34.667 19.867 34.4 20.4 33.867 L 31.733 22.533 C 32.267 22 32.533 21.367 32.533 20.633 C 32.533 19.9 32.267 19.267 31.733 18.733 C 31.2 18.2 30.567 17.933 29.833 17.933 C 29.1 17.933 28.467 18.2 27.933 18.733 L 18.533 28.133 Z M 20.467 52.6 C 20.2 52.556 19.933 52.489 19.667 52.4 C 13.667 50.4 8.889 46.7 5.333 41.3 C 1.778 35.9 0 30.089 0 23.867 L 0 11.267 C 0 10.156 0.322 9.156 0.967 8.267 C 1.611 7.378 2.444 6.733 3.467 6.333 L 19.467 0.333 C 20.089 0.111 20.711 0 21.333 0 C 21.956 0 22.578 0.111 23.2 0.333 L 39.2 6.333 C 40.222 6.733 41.056 7.378 41.7 8.267 C 42.344 9.156 42.667 10.156 42.667 11.267 L 42.667 23.867 C 42.667 30.089 40.889 35.9 37.333 41.3 C 33.778 46.7 29 50.4 23 52.4 C 22.733 52.489 22.467 52.556 22.2 52.6 C 21.933 52.644 21.644 52.667 21.333 52.667 C 21.022 52.667 20.733 52.644 20.467 52.6 Z M 21.333 47.333 C 25.956 45.867 29.778 42.933 32.8 38.533 C 35.822 34.133 37.333 29.244 37.333 23.867 L 37.333 11.267 L 21.333 5.267 L 5.333 11.267 L 5.333 23.867 C 5.333 29.244 6.844 34.133 9.867 38.533 C 12.889 42.933 16.711 45.867 21.333 47.333 Z" fill="currentColor" fill-rule="nonzero"></path>
</svg>